<svg width="1440" height="4673" viewBox="0 0 1440 4673" fill="none" xmlns="http://www.w3.org/2000/svg">
<g filter="url(#filter0_ii_257_872)">
<path fill-rule="evenodd" clip-rule="evenodd" d="M1091.67 95.0516C1079.02 84.4843 1062.22 70.4568 1024.76 44.3035C815.536 -101.759 608.71 156.107 768.162 306.165C846.324 379.723 831.731 445.704 818.546 505.313C804.834 567.307 792.647 622.41 887.906 671.981C1025.35 709.606 1077.22 622.223 1124.29 542.91C1157.89 486.303 1189.05 433.806 1247.14 433.806C1421.16 433.807 1530.07 368.059 1473.48 212.575C1447.41 140.919 1385.23 148.151 1316.8 156.113C1266.72 161.937 1213.3 168.152 1168.2 144.15C1119.3 118.127 1109.69 110.096 1091.67 95.0516ZM-46.7303 4664.59C-15.9723 4665.5 19.7955 4666.56 59.1466 4671.5C140.054 4681.65 239.932 4634 137.768 4554.12C125.87 4544.82 114.519 4535.59 103.56 4526.67C20.4093 4459.01 -40.1424 4409.75 -144.87 4489.77C-197.411 4529.91 -178.015 4625.84 -147.066 4648.5C-128.422 4662.16 -93.3246 4663.2 -46.7303 4664.59Z" fill="#F9F9F9"/>
</g>
<defs>
<filter id="filter0_ii_257_872" x="-179.602" y="-1.01807" width="1672.14" height="4677.87" filterUnits="userSpaceOnUse" color-interpolation-filters="sRGB">
<feFlood flood-opacity="0" result="BackgroundImageFix"/>
<feBlend mode="normal" in="SourceGraphic" in2="BackgroundImageFix" result="shape"/>
<feColorMatrix in="SourceAlpha" type="matrix" values="0 0 0 0 0 0 0 0 0 0 0 0 0 0 0 0 0 0 127 0" result="hardAlpha"/>
<feOffset dx="-2" dy="-2"/>
<feGaussianBlur stdDeviation="3"/>
<feComposite in2="hardAlpha" operator="arithmetic" k2="-1" k3="1"/>
<feColorMatrix type="matrix" values="0 0 0 0 1 0 0 0 0 1 0 0 0 0 1 0 0 0 0.25 0"/>
<feBlend mode="normal" in2="shape" result="effect1_innerShadow_257_872"/>
<feColorMatrix in="SourceAlpha" type="matrix" values="0 0 0 0 0 0 0 0 0 0 0 0 0 0 0 0 0 0 127 0" result="hardAlpha"/>
<feOffset dx="4" dy="4"/>
<feGaussianBlur stdDeviation="8.5"/>
<feComposite in2="hardAlpha" operator="arithmetic" k2="-1" k3="1"/>
<feColorMatrix type="matrix" values="0 0 0 0 0.890196 0 0 0 0 0.898039 0 0 0 0 0.898039 0 0 0 1 0"/>
<feBlend mode="normal" in2="effect1_innerShadow_257_872" result="effect2_innerShadow_257_872"/>
</filter>
</defs>
</svg>
