<svg width="79" height="81" viewBox="0 0 79 81" fill="none" xmlns="http://www.w3.org/2000/svg"><path d="M64.728 39.71c-8.752 5.131-20.533 2.015-26.468-6.678-.095.115-.195.216-.277.324a20.477 20.477 0 01-6.265 5.8 20.23 20.23 0 01-8.057 2.715 20.732 20.732 0 01-14.62-3.532A21.163 21.163 0 01.537 25.802a21.284 21.284 0 01.077-9.827 21.134 21.134 0 014.478-8.721 20.817 20.817 0 017.905-5.714A20.595 20.595 0 0122.605.078 20.35 20.35 0 0132.5 3.373a21.312 21.312 0 015.438 5.214c.094.134.195.26.283.369.817-.91 1.578-1.844 2.427-2.69A20.116 20.116 0 0151.525.6a22.826 22.826 0 0115.183 2.372c5.294 2.887 8.463 7.44 9.752 13.354a21.046 21.046 0 01-.183 10.55 21.777 21.777 0 01-2.835 6.156.64.64 0 000 .859c1.69 2.352 3.357 4.718 5.03 7.077l.301.465c-.214 0-.37.031-.522.031H66.47a.778.778 0 01-.735-.368c-.302-.471-.654-.91-1.006-1.387zM35.26 14.907h-6.319a1.083 1.083 0 01-.899-.375c-2.458-2.633-5.526-3.396-8.953-2.81a9.314 9.314 0 00-3.402 1.359 9.424 9.424 0 00-2.628 2.573 9.54 9.54 0 00-1.455 3.395 9.591 9.591 0 00-.06 3.7c1.403 7.147 10.286 10.231 15.719 5.462.176-.153.326-.344.584-.636h-5.243v-9.87h11.663c.145 0 .377-.108.409-.203.195-.859.377-1.717.578-2.614l.007.02zm16.05 7.631c.139 0 .183-.032.233-.032h12.41c.2.021.385.12.516.274.308.356.566.75.874 1.17a7.604 7.604 0 00.239-3.962 10.629 10.629 0 00-1.751-3.952 10.493 10.493 0 00-3.172-2.91 9.498 9.498 0 00-9.6-.395 9.631 9.631 0 00-3.65 3.417 9.778 9.778 0 00-1.468 4.807 9.367 9.367 0 001.984 5.911 9.179 9.179 0 005.234 3.31 7.894 7.894 0 003.389 0l-5.238-7.638z" fill="#DE968A"/><path d="M12.848 46.745h3.945V36.124h4.27v-3.407H8.578v3.407h4.27v10.621zm9.008 0h3.864v-3.367c0-2.505 1.14-3.647 3.152-3.647h.326v-4.008c-1.83-.08-2.847.882-3.478 2.365v-2.185h-3.864v10.842zm11.334.241c1.444 0 2.482-.541 3.234-1.363v1.122h3.823v-6.232c0-1.523-.346-2.645-1.18-3.447-.874-.862-2.216-1.323-4.189-1.323-1.89 0-3.213.34-4.453.842l.793 2.685c.976-.38 1.87-.601 3.03-.601 1.485 0 2.196.641 2.196 1.764v.18c-.63-.22-1.627-.42-2.643-.42-2.583 0-4.312 1.162-4.312 3.406 0 2.205 1.607 3.387 3.701 3.387zm1.383-2.385c-.793 0-1.362-.44-1.362-1.182 0-.842.65-1.383 1.77-1.383a4.1 4.1 0 011.504.28v.502c0 1.082-.793 1.783-1.912 1.783zm10.643 2.224h3.518l4.393-10.922H49.12l-2.114 6.333-2.115-6.333h-4.068l4.393 10.922zm13.945.181c2.197 0 3.722-.882 4.78-2.205l-2.136-1.743c-.793.761-1.525 1.102-2.44 1.102-1.2 0-2.075-.601-2.38-1.784h7.362c.02-.26.02-.54.02-.781 0-3.187-1.749-5.932-5.552-5.932-3.253 0-5.551 2.505-5.551 5.671 0 3.407 2.44 5.672 5.897 5.672zm-2.237-6.574c.204-1.182.895-1.964 1.912-1.964 1.057 0 1.77.762 1.912 1.964h-3.824zm9.182 6.313h3.863v-14.63h-3.863v14.63zM1.26 65.88h4.15l1.016-2.505h5.491l1.037 2.505h4.23l-6.06-14.128H7.32L1.261 65.88zm6.325-5.531l1.607-3.988 1.586 3.988H7.585zm12.207 5.611h3.315l1.83-5.631 1.79 5.631h3.335l3.396-10.922h-3.721l-1.485 5.491-1.708-5.531H23.35l-1.688 5.491-1.444-5.45h-3.783l3.356 10.921zm17.588.16c1.445 0 2.482-.54 3.234-1.362v1.122h3.824v-6.232c0-1.524-.346-2.646-1.18-3.447-.874-.862-2.217-1.323-4.19-1.323-1.89 0-3.212.34-4.453.842l.793 2.685c.976-.38 1.871-.601 3.03-.601 1.485 0 2.197.641 2.197 1.763v.18c-.63-.22-1.627-.42-2.644-.42-2.583 0-4.311 1.162-4.311 3.407 0 2.204 1.606 3.387 3.7 3.387zm1.384-2.384c-.793 0-1.363-.441-1.363-1.183 0-.841.651-1.382 1.77-1.382.569 0 1.118.12 1.504.28v.501c0 1.083-.793 1.784-1.911 1.784zm7.639 2.144h3.864v-3.367c0-2.505 1.14-3.647 3.152-3.647h.326v-4.008c-1.83-.08-2.847.882-3.478 2.365v-2.185h-3.864V65.88zm12.953.24c1.648 0 2.603-.781 3.356-1.683v1.443h3.864V51.25h-3.864v5.11c-.732-.82-1.708-1.562-3.376-1.562-2.603 0-4.84 2.144-4.84 5.671 0 3.507 2.257 5.652 4.86 5.652zm1.18-3.186c-1.24 0-2.257-1.022-2.257-2.465 0-1.483 1.016-2.485 2.257-2.485 1.24 0 2.237 1.022 2.237 2.445 0 1.483-.997 2.505-2.237 2.505zm12.483 3.186c2.684 0 4.494-1.242 4.494-3.627 0-2.144-1.729-2.865-3.905-3.487-1.159-.34-1.79-.54-1.79-.962 0-.34.306-.56.895-.56.875 0 2.116.38 3.254 1.001l1.322-2.404c-1.26-.802-2.928-1.263-4.535-1.263-2.542 0-4.413 1.282-4.413 3.587 0 2.225 1.729 2.926 3.905 3.507 1.159.3 1.77.501 1.77.922 0 .421-.306.621-.977.621-1.139 0-2.522-.42-3.783-1.242l-1.444 2.304c1.526 1.083 3.356 1.604 5.207 1.604zM27.227 77.625h5.587v-1.6h-2.915l1.21-.85c1.06-.75 1.634-1.347 1.634-2.48 0-1.358-1.059-2.279-2.602-2.279-1.371 0-2.118.537-2.874 1.519l1.321 1.103c.555-.638.928-.91 1.402-.91.474 0 .787.272.787.718 0 .425-.242.77-.908 1.276l-2.642 2.025v1.478zm9.631.142c2.017 0 3.278-1.681 3.278-3.686 0-2.025-1.25-3.685-3.258-3.685-2.007 0-3.277 1.68-3.277 3.685 0 2.025 1.24 3.686 3.257 3.686zm.02-1.742c-.786 0-1.31-.81-1.31-1.944 0-1.154.514-1.944 1.29-1.944.777 0 1.311.82 1.311 1.944 0 1.144-.504 1.944-1.29 1.944zm3.91 1.6h5.587v-1.6h-2.914l1.21-.85c1.059-.75 1.634-1.347 1.634-2.48 0-1.358-1.06-2.279-2.602-2.279-1.372 0-2.118.537-2.875 1.519l1.322 1.103c.554-.638.927-.91 1.401-.91s.787.272.787.718c0 .425-.242.77-.908 1.276l-2.642 2.025v1.478zm7.604 0h1.926v-7.138h-1.421l-2.068.587.373 1.519 1.19-.274v5.306z" fill="#666"/><path fill-rule="evenodd" clip-rule="evenodd" d="M23.532 74.25H6.724v-.844h16.808v.844zm47.904 0H54.628v-.844h16.808v.844z" fill="#666"/></svg>