<svg width="25" height="25" viewBox="0 0 25 25" fill="none" xmlns="http://www.w3.org/2000/svg"><g clip-path="url(#clip0_368_2084)"><path d="M5.933.068a.828.828 0 00-.41.435c-.03.078-.054.43-.054.79v.65l-1.426.02c-1.401.015-1.44.02-1.802.146C1.226 2.466.518 3.17.161 4.175l-.137.39v17.822l.137.391c.357 1.006 1.06 1.704 2.08 2.066l.371.132h19.776l.39-.137c1.006-.357 1.704-1.06 2.066-2.08l.132-.371V4.565l-.132-.37c-.362-1.021-1.06-1.724-2.066-2.08-.385-.133-.4-.137-1.816-.152l-1.426-.02-.015-.722C19.508.43 19.482.356 19.17.127c-.19-.142-.65-.142-.84 0-.312.23-.337.303-.351 1.099l-.015.727H7.036l-.015-.727C7.007.435 6.982.356 6.68.132 6.514.01 6.128-.024 5.933.068zm-.454 3.98c.014.576.058.688.351.903.19.142.65.142.84 0 .293-.215.337-.327.351-.903l.02-.532h10.918l.02.532c.014.576.058.688.351.903.19.142.65.142.84 0 .293-.215.337-.327.351-.903l.02-.537 1.323.014 1.328.015.279.137c.351.17.634.454.805.805.137.279.137.284.152 1.412l.014 1.137H1.562v-1.04c0-.771.02-1.103.069-1.28A1.771 1.771 0 012.7 3.605c.219-.074.434-.083 1.508-.088h1.25l.02.532zM23.428 15.39l-.015 6.801-.132.269c-.17.347-.473.65-.815.82l-.274.132H2.808l-.269-.132a1.865 1.865 0 01-.82-.815l-.132-.274-.015-6.801-.01-6.797h21.876l-.01 6.797z" fill="#666981"/></g><defs><clipPath id="clip0_368_2084"><path fill="#fff" d="M0 0h25v25H0z"/></clipPath></defs></svg>