<svg width="88" height="88" viewBox="0 0 88 88" fill="none" xmlns="http://www.w3.org/2000/svg"><g clip-path="url(#clip0_204_2002)" fill="#fff"><path d="M25.111.275c-2.13.567-3.901 2.08-4.88 4.142-.5 1.049-.55 1.358-.603 3.094l-.068 1.942h-2.183c-1.186 0-2.664.086-3.283.172-3.042.481-5.672 2.836-6.428 5.758-.24.894-.275 4.675-.275 33.344 0 35.354-.052 33.275.98 35.182.567 1.049 1.873 2.39 2.922 2.991.43.258 1.289.619 1.925.79 1.065.293 2.423.31 25.918.31 17.566 0 25.042-.052 25.696-.19 3.747-.79 6.325-4.141 6.325-8.25v-1.013h1.083c3.3 0 5.878-1.29 7.287-3.627 1.151-1.942 1.083.43 1.083-35.75 0-31.625-.017-32.81-.327-33.825-.43-1.41-1.031-2.372-2.045-3.317-.997-.928-1.89-1.41-3.248-1.77-1.462-.378-48.47-.361-49.88.017zm50.17 2.544c1.1.584 1.822 1.272 2.338 2.2l.499.91.051 33c.052 37.005.155 33.894-1.254 35.459-1.066 1.168-2.149 1.615-4.16 1.718l-1.598.069-.017-29.786c0-27.603-.018-29.889-.293-30.937-.79-3.008-3.351-5.346-6.393-5.827-.722-.103-8.594-.172-21.777-.172H22V7.855c0-1.22.086-1.753.361-2.355.67-1.495 1.564-2.32 3.06-2.853.498-.19 5.345-.224 24.939-.19 23.478.035 24.337.052 24.922.362zM41.2 19.25c.051 7.202.051 7.305.412 7.597.207.172.654.31.997.31.533 0 1.203-.379 4.022-2.27l3.386-2.268 3.231 2.165a296.875 296.875 0 003.438 2.286c.343.19 1.168-.223 1.392-.704.138-.293.189-2.613.189-7.477v-7.064l3.145.069c2.75.051 3.232.103 3.936.43 1.135.515 2.424 1.787 2.905 2.853l.413.893v65.347l-.602 1.186c-.43.842-.842 1.358-1.461 1.822-1.633 1.237.189 1.169-27.431 1.169-24.613 0-24.905 0-25.833-.344-1.186-.447-2.303-1.427-2.94-2.595l-.515-.928-.051-32.657c-.035-36.145-.12-33.36 1.082-35.01.654-.894 1.805-1.65 2.991-1.96.602-.172 3.97-.206 14.025-.19l13.234.035.035 7.305zm14.66-1.547c0 3.214-.034 5.844-.085 5.844-.052 0-1.272-.79-2.699-1.753-1.615-1.066-2.784-1.736-3.059-1.736-.275 0-1.53.739-3.352 1.96-1.615 1.082-2.973 1.976-3.042 2.01-.172.069-.189-11.894-.017-12.048.052-.07 2.836-.12 6.188-.12h6.067v5.843z"/><path d="M23.651 36.523c-.533.533-.464 1.444.138 1.84.103.068 8.043.137 17.651.137 16.707 0 17.48-.017 17.738-.31.378-.43.36-1.288-.017-1.632-.293-.275-1.77-.292-17.79-.292-15.314 0-17.48.034-17.72.257zm-.087 11.361c-.206.258-.36.516-.36.602 0 .43.377.98.807 1.169.36.137 4.812.189 17.6.154 16.569-.051 17.153-.068 17.497-.378.498-.447.481-1.375-.017-1.718-.344-.241-2.32-.276-17.772-.276H23.908l-.344.447zm-.017 11.189c-.258.327-.327.602-.258.911.258 1.014-.946.946 17.944.997l17.324.035.447-.361c.568-.43.62-1.203.12-1.702-.343-.344-.567-.344-17.771-.344H23.907l-.36.464zm.086 11.137c-.24.224-.43.568-.43.774 0 .19.19.55.43.774l.412.43h17.377c17.136 0 17.36 0 17.703-.344.447-.447.447-1.272 0-1.719-.344-.344-.567-.344-17.703-.344H24.045l-.412.43z"/></g><defs><clipPath id="clip0_204_2002"><path fill="#fff" d="M0 0h88v88H0z"/></clipPath></defs></svg>