<svg width="23" height="23" viewBox="0 0 23 23" fill="none" xmlns="http://www.w3.org/2000/svg"><path d="M10.916.027c-1.029.117-1.617.242-2.282.49a8.458 8.458 0 00-4.236 3.48c-.943 1.524-1.38 3.496-1.164 5.257.35 2.834 2.372 6.742 5.723 11.073.791 1.024 1.81 2.25 2.044 2.462.31.278.688.278.998 0 .233-.212 1.253-1.438 2.044-2.462 3.014-3.895 4.95-7.435 5.56-10.184a7.657 7.657 0 00.208-1.9 8.156 8.156 0 00-2.426-5.772C16.1 1.18 14.586.404 12.803.112 12.38.045 11.22-.009 10.916.027zm1.11 4.155a4.24 4.24 0 013.517 3.05c.121.427.166 1.285.094 1.752a4.21 4.21 0 01-2.318 3.1 3.992 3.992 0 01-2.232.404c-.593-.067-.894-.153-1.406-.404a4.211 4.211 0 01-2.318-3.1c-.072-.467-.027-1.325.094-1.752.562-2.003 2.543-3.328 4.569-3.05z" fill="#666981"/></svg>