<svg width="30" height="30" viewBox="0 0 30 30" fill="none" xmlns="http://www.w3.org/2000/svg"><g clip-path="url(#clip0_513_55)" fill="#666981"><path d="M4.6.076c-.37.123-.452.182-1.395.967C1.242 2.678.732 3.229.405 4.073c-.324.83-.488 2.201-.353 2.987.263 1.564 1.634 4.617 3.299 7.347 2.566 4.201 5.285 7.26 8.835 9.932 2.83 2.127 6.247 4.066 8.924 5.068 1.33.498 1.582.557 2.56.557 1.747 0 2.784-.399 3.792-1.447.744-.78 2.25-2.614 2.379-2.907.094-.199.123-.386.123-.738 0-.557-.152-.908-.563-1.295-.134-.135-1.558-1.254-3.152-2.484-3.158-2.444-3.387-2.59-4.19-2.707-.708-.1-1.189 0-1.962.41-1.535.814-1.5.797-1.957.797-.528 0-.809-.123-1.453-.627-1.928-1.506-3.827-3.381-5.438-5.373-.686-.85-.844-1.172-.844-1.735 0-.457-.017-.421.797-1.957.41-.773.51-1.254.41-1.963-.117-.802-.263-1.03-2.707-4.189C7.676 2.156 6.556.732 6.422.598A2.403 2.403 0 005.9.193C5.55.018 4.945-.035 4.6.076zm.89 1.295c.235.193 4.588 5.836 4.764 6.17.17.328.228.99.117 1.348-.04.123-.258.539-.475.925-.544.95-.644 1.237-.68 1.876-.052.96.159 1.47 1.073 2.619a34.768 34.768 0 005.373 5.373c1.184.949 1.705 1.16 2.672 1.107.604-.035.938-.158 1.887-.703.369-.211.767-.416.89-.457.358-.111 1.02-.059 1.348.117.334.176 5.977 4.53 6.17 4.764.181.217.187.55.012.78-.37.48-1.612 1.939-2.028 2.372-.627.662-1.037.879-1.974 1.043-.557.1-1.535.088-1.963-.023-.95-.246-2.942-1.114-4.53-1.97-4.652-2.513-8.173-5.372-10.98-8.905-2.455-3.094-4.998-7.623-5.79-10.301-.151-.527-.157-.604-.128-1.377.053-1.395.281-1.98 1.06-2.713.428-.398 1.999-1.746 2.403-2.057a.633.633 0 01.78.012zm15.13.029c-.124.13-.17.229-.17.387 0 .322.134.469.632.68 1.611.668 2.906 1.535 4.025 2.695 1.061 1.096 1.805 2.256 2.432 3.762.211.504.334.627.65.627.329 0 .58-.235.58-.533 0-.405-.562-1.647-1.2-2.66-.54-.85-.95-1.36-1.758-2.169-.809-.808-1.319-1.218-2.168-1.757C22.646 1.805 21.387 1.23 21 1.23c-.152 0-.252.047-.38.17zm-1.66 4.524c-.18.21-.198.545-.046.732.053.07.404.276.78.457 1.488.721 2.472 1.711 3.216 3.235.194.398.404.75.463.785.21.111.51.07.709-.1.176-.146.188-.175.164-.45-.017-.188-.117-.487-.27-.81-.82-1.71-2.337-3.17-4.007-3.86-.557-.23-.809-.224-1.008.01zm-1.64 4.511a.674.674 0 00-.093.704c.035.058.21.187.398.28.41.212.738.54.973.985.205.381.457.522.738.416.65-.246.521-1.002-.317-1.84-.462-.462-.943-.726-1.312-.726-.193 0-.264.035-.387.181z"/></g><defs><clipPath id="clip0_513_55"><path fill="#fff" d="M0 0h30v30H0z"/></clipPath></defs></svg>