<svg width="23" height="23" viewBox="0 0 23 23" fill="none" xmlns="http://www.w3.org/2000/svg"><g clip-path="url(#clip0_663_721)"><path d="M5.251.782c-.718.274-2.057 1.594-3.301 3.247-.495.66-.881 1.254-1.083 1.676L.7 6.038l.054.453c.413 3.572 3.387 8.239 7.376 11.572 2.816 2.35 5.853 3.872 8.355 4.178.413.054.436.05.697-.054 1.06-.436 3.566-2.448 4.514-3.63.602-.75.692-1.114.413-1.68-.188-.386-.39-.561-1.46-1.28-2.17-1.465-3.723-2.255-4.42-2.255-.516 0-.808.215-1.653 1.208-.296.346-.566.634-.597.634-.1 0-.827-.297-1.263-.512A9.84 9.84 0 018.93 11.32c-.355-.53-.858-1.523-1.02-2.003l-.107-.32.175-.156c.094-.086.386-.337.647-.562.804-.683.993-.948 1.024-1.442a1.44 1.44 0 00-.08-.597c-.14-.427-.625-1.415-1.079-2.175-.512-.862-1.617-2.524-1.869-2.803-.363-.404-.992-.624-1.37-.48z" fill="#666981"/></g><defs><clipPath id="clip0_663_721"><path fill="#fff" d="M0 0h23v23H0z"/></clipPath></defs></svg>