<svg width="30" height="31" viewBox="0 0 30 31" fill="none" xmlns="http://www.w3.org/2000/svg"><g clip-path="url(#clip0_342_6050)"><path d="M14.244 1.3h-.003c-2.738.25-4.982 1.258-6.813 3.04-2.538 2.472-3.647 6.013-2.926 9.228a12.633 12.633 0 001.37 3.51c.187.33 2.204 3.343 4.223 6.33a944.465 944.465 0 002.772 4.08 218.434 218.434 0 001.221 1.766l.082.111.022.03c.468.48 1.143.482 1.613.004a1208.599 1208.599 0 003.602-5.25c1.828-2.687 3.752-5.529 4.218-6.25h0c1.448-2.226 2.166-4.54 2.076-6.554-.073-1.63-.402-2.91-1.103-4.265h0a10.039 10.039 0 00-2.025-2.739 10.8 10.8 0 00-5.898-2.935c-.258-.04-.757-.077-1.259-.1-.506-.021-.972-.026-1.172-.006zM5.14 13.637h0c-.495-2.042-.254-4.086.72-6.148 1.383-2.942 4.495-5.153 7.782-5.544a10.22 10.22 0 012.932.03c3.22.455 6.216 2.638 7.568 5.514.678 1.437.954 2.64.954 4.183 0 .72-.025 1.026-.16 1.643-.303 1.406-.8 2.618-1.638 3.977-.37.604-2.355 3.547-4.25 6.326a703.03 703.03 0 01-2.577 3.758c-.348.504-.64.922-.846 1.215a22.378 22.378 0 01-.322.442.828.828 0 01-.072.076.366.366 0 01-.049.035h0a.352.352 0 01-.36 0h-.002a.356.356 0 01-.084-.07 3.567 3.567 0 01-.111-.14c-.06-.081-.143-.198-.247-.343-.207-.293-.498-.71-.847-1.215a703.03 703.03 0 01-2.576-3.758c-1.895-2.78-3.88-5.722-4.25-6.326-.784-1.276-1.25-2.36-1.565-3.655z" stroke="#666981" stroke-width=".7"/><path d="M14.004 6.08a5.893 5.893 0 00-4.412 3.452c-.738 1.695-.545 3.726.492 5.272.838 1.238 2.016 2.054 3.568 2.47.54.143 2.157.143 2.696 0 1.553-.416 2.73-1.232 3.568-2.47.82-1.215 1.125-2.779.826-4.188-.428-2.03-1.904-3.662-3.908-4.33a6.257 6.257 0 00-2.83-.205zm1.564 1.233c.985.131 1.829.52 2.537 1.17 1.471 1.352 1.864 3.388.997 5.14-.575 1.152-1.63 2.008-2.913 2.368-.65.182-1.728.182-2.378 0-2.268-.634-3.698-2.802-3.3-5.01.34-1.9 1.905-3.394 3.845-3.662.533-.074.691-.074 1.212-.006z" fill="#666981"/></g><defs><clipPath id="clip0_342_6050"><path fill="#fff" transform="translate(0 .918)" d="M0 0h30v29.21H0z"/></clipPath></defs></svg>