<svg width="30" height="30" viewBox="0 0 30 30" fill="none" xmlns="http://www.w3.org/2000/svg"><path d="M27.95 2.66c-1.993.732-26.573 10.172-26.936 10.348-1.201.568-1.342 1.318-.34 1.828.1.053 1.758.58 3.697 1.183l3.522 1.096 7.992-5.004c4.4-2.748 8.086-5.033 8.191-5.068.276-.094.51-.088.615.023.077.076.082.112.018.223-.035.076-2.959 2.73-6.486 5.895-3.528 3.17-6.428 5.783-6.44 5.812-.011.03-.129 1.611-.263 3.516l-.246 3.457.269-.036c.147-.017.375-.093.51-.17.14-.07 1.054-.902 2.045-1.845.984-.944 1.828-1.735 1.869-1.746.04-.018 1.611 1.095 3.492 2.472 1.875 1.377 3.557 2.567 3.738 2.649.475.223 1.002.24 1.348.058.31-.164.61-.574.738-1.002.047-.164 1.125-5.127 2.385-11.027 2.104-9.82 2.297-10.77 2.297-11.28 0-.48-.018-.597-.147-.849a1.3 1.3 0 00-.398-.469c-.346-.24-.92-.269-1.47-.064z" fill="#666981"/></svg>