<svg width="30" height="30" viewBox="0 0 30 30" fill="none" xmlns="http://www.w3.org/2000/svg"><path d="M27.95 2.66c-1.993.733-26.573 10.172-26.936 10.348-1.201.568-1.342 1.318-.34 1.828.1.053 1.758.58 3.697 1.184l3.522 1.095 7.992-5.004c4.4-2.748 8.086-5.033 8.191-5.068.276-.094.51-.088.615.023.077.077.082.112.018.223-.035.076-2.959 2.73-6.486 5.895-3.528 3.17-6.428 5.783-6.44 5.812-.011.03-.129 1.611-.263 3.516l-.246 3.457.269-.035c.147-.018.375-.094.51-.17.14-.07 1.054-.903 2.045-1.846.984-.943 1.828-1.734 1.869-1.746.04-.018 1.611 1.096 3.492 2.473 1.875 1.377 3.557 2.566 3.738 2.648.475.223 1.002.24 1.348.059.31-.165.61-.575.738-1.002.047-.165 1.125-5.127 2.385-11.028 2.104-9.82 2.297-10.77 2.297-11.279 0-.48-.018-.598-.147-.85a1.3 1.3 0 00-.398-.468c-.346-.24-.92-.27-1.47-.065z" fill="#fff"/></svg>