<svg width="1440" height="4673" viewBox="0 0 1440 4673" fill="none" xmlns="http://www.w3.org/2000/svg"><g filter="url(#filter0_ii_257_872)"><path fill-rule="evenodd" clip-rule="evenodd" d="M1091.67 95.052c-12.65-10.568-29.45-24.595-66.91-50.749-209.224-146.062-416.05 111.804-256.598 261.863 78.162 73.557 63.569 139.538 50.384 199.147-13.712 61.994-25.899 117.097 69.36 166.668 137.444 37.625 189.314-49.758 236.384-129.071 33.6-56.607 64.76-109.104 122.85-109.104 174.02.001 282.93-65.747 226.34-221.231-26.07-71.656-88.25-64.424-156.68-56.462-50.08 5.824-103.5 12.039-148.6-11.963-48.9-26.023-58.51-34.054-76.53-49.098zM-46.73 4664.59c30.758.91 66.525 1.97 105.877 6.91 80.907 10.15 180.785-37.5 78.621-117.38-11.898-9.3-23.249-18.53-34.208-27.45-83.15-67.66-143.702-116.92-248.43-36.9-52.541 40.14-33.145 136.07-2.196 158.73 18.644 13.66 53.741 14.7 100.336 16.09z" fill="#F9F9F9"/></g><defs><filter id="filter0_ii_257_872" x="-179.602" y="-1.018" width="1672.14" height="4677.87" filterUnits="userSpaceOnUse" color-interpolation-filters="sRGB"><feFlood flood-opacity="0" result="BackgroundImageFix"/><feBlend in="SourceGraphic" in2="BackgroundImageFix" result="shape"/><feColorMatrix in="SourceAlpha" values="0 0 0 0 0 0 0 0 0 0 0 0 0 0 0 0 0 0 127 0" result="hardAlpha"/><feOffset dx="-2" dy="-2"/><feGaussianBlur stdDeviation="3"/><feComposite in2="hardAlpha" operator="arithmetic" k2="-1" k3="1"/><feColorMatrix values="0 0 0 0 1 0 0 0 0 1 0 0 0 0 1 0 0 0 0.25 0"/><feBlend in2="shape" result="effect1_innerShadow_257_872"/><feColorMatrix in="SourceAlpha" values="0 0 0 0 0 0 0 0 0 0 0 0 0 0 0 0 0 0 127 0" result="hardAlpha"/><feOffset dx="4" dy="4"/><feGaussianBlur stdDeviation="8.5"/><feComposite in2="hardAlpha" operator="arithmetic" k2="-1" k3="1"/><feColorMatrix values="0 0 0 0 0.890196 0 0 0 0 0.898039 0 0 0 0 0.898039 0 0 0 1 0"/><feBlend in2="effect1_innerShadow_257_872" result="effect2_innerShadow_257_872"/></filter></defs></svg>