<svg width="1440" height="4673" viewBox="0 0 1440 4673" fill="none" xmlns="http://www.w3.org/2000/svg"><g filter="url(#filter0_ii_365_1811)"><path fill-rule="evenodd" clip-rule="evenodd" d="M364.509 94.743c12.653-10.567 29.449-24.595 66.912-50.748C640.644-102.068 847.47 155.799 688.019 305.857c-78.163 73.558-63.569 139.538-50.385 199.147 13.712 61.994 25.9 117.098-69.359 166.668-137.445 37.625-189.311-49.758-236.387-129.07-33.599-56.608-64.759-109.104-122.851-109.104-174.019 0-282.924-65.747-226.34-221.231 26.076-71.657 88.249-64.424 156.689-56.463 50.071 5.825 103.497 12.04 148.597-11.963 48.895-26.023 58.512-34.054 76.526-49.098zM1502.91 4664.28c-30.76.91-66.52 1.97-105.88 6.91-80.9 10.15-180.78-37.5-78.62-117.37 11.9-9.31 23.25-18.54 34.21-27.46 83.15-67.66 143.7-116.92 248.43-36.9 52.54 40.14 33.15 136.07 2.2 158.74-18.65 13.65-53.74 14.69-100.34 16.08z" fill="#F9F9F9"/></g><defs><filter id="filter0_ii_365_1811" x="-34.358" y="-1.327" width="1672.14" height="4677.87" filterUnits="userSpaceOnUse" color-interpolation-filters="sRGB"><feFlood flood-opacity="0" result="BackgroundImageFix"/><feBlend in="SourceGraphic" in2="BackgroundImageFix" result="shape"/><feColorMatrix in="SourceAlpha" values="0 0 0 0 0 0 0 0 0 0 0 0 0 0 0 0 0 0 127 0" result="hardAlpha"/><feOffset dx="-2" dy="-2"/><feGaussianBlur stdDeviation="3"/><feComposite in2="hardAlpha" operator="arithmetic" k2="-1" k3="1"/><feColorMatrix values="0 0 0 0 1 0 0 0 0 1 0 0 0 0 1 0 0 0 0.25 0"/><feBlend in2="shape" result="effect1_innerShadow_365_1811"/><feColorMatrix in="SourceAlpha" values="0 0 0 0 0 0 0 0 0 0 0 0 0 0 0 0 0 0 127 0" result="hardAlpha"/><feOffset dx="4" dy="4"/><feGaussianBlur stdDeviation="8.5"/><feComposite in2="hardAlpha" operator="arithmetic" k2="-1" k3="1"/><feColorMatrix values="0 0 0 0 0.890196 0 0 0 0 0.898039 0 0 0 0 0.898039 0 0 0 1 0"/><feBlend in2="effect1_innerShadow_365_1811" result="effect2_innerShadow_365_1811"/></filter></defs></svg>