<svg width="32" height="32" viewBox="0 0 32 32" fill="none" xmlns="http://www.w3.org/2000/svg"><path d="M13.406 6.913c-.606.043-1.381.162-1.687.256-.531.162-1.188.75-1.069.95.025.031.144.081.275.106.575.106 1.056.431 1.275.856.369.725.538 3 .338 4.607-.132 1.062-.188 1.306-.388 1.693-.519 1.038-1.725.2-3.05-2.125-.475-.825-1.8-3.475-2.094-4.18-.362-.857-.475-1.013-.881-1.22l-.344-.175-2.593.02c-2.344.018-2.613.03-2.794.13-.294.157-.419.375-.375.657.037.3 1.019 2.487 1.744 3.887 1.412 2.725 2.612 4.706 3.887 6.438 1.881 2.543 2.713 3.368 4.631 4.593.894.575 1.544.894 2.344 1.163 1.1.369 1.575.437 3.219.475 1.631.037 2.1-.013 2.45-.25.281-.194.369-.463.425-1.294.05-.825.212-1.531.431-1.906.2-.331.619-.719.806-.725.631-.031.988.231 2.313 1.719 1.244 1.393 1.7 1.8 2.387 2.13.313.145.688.295.844.332.375.088 5.438-.012 5.762-.106.325-.1.675-.444.682-.669.025-.619-.069-.9-.5-1.556-.575-.863-1.063-1.413-2.732-3.063-1.774-1.756-1.893-1.918-1.9-2.506 0-.494.232-.869 1.788-2.931 2.194-2.906 3.069-4.313 3.313-5.3.143-.581.062-.863-.307-1.063l-.262-.137-3.157.019c-2.23.018-3.2.043-3.312.093-.212.1-.431.47-.712 1.17-.75 1.868-2.294 4.562-3.313 5.774-.406.481-1.038.975-1.244.975-.294 0-.537-.187-.719-.562l-.168-.344.018-3.244c.02-3.494.007-3.594-.312-4.056-.319-.45-1.094-.606-3.175-.638a49.93 49.93 0 00-1.844.007z" fill="#fff"/></svg>