<svg width="30" height="30" viewBox="0 0 30 30" fill="none" xmlns="http://www.w3.org/2000/svg"><path d="M12.569 6.48c-.569.042-1.295.153-1.583.24-.498.153-1.113.704-1.001.891.023.03.134.077.257.1.54.1.99.404 1.196.803.345.68.504 2.812.316 4.318-.123.996-.176 1.225-.363 1.588-.486.973-1.617.188-2.86-1.992-.445-.774-1.687-3.258-1.962-3.92-.34-.803-.446-.95-.827-1.143l-.322-.164-2.432.018C.791 7.236.54 7.249.37 7.342c-.275.146-.392.352-.351.615.035.281.955 2.332 1.635 3.645 1.324 2.554 2.449 4.412 3.644 6.035 1.764 2.385 2.543 3.158 4.342 4.306.838.54 1.447.838 2.197 1.09 1.031.346 1.477.41 3.018.446 1.529.035 1.968-.012 2.297-.235.263-.181.345-.433.398-1.213.047-.773.2-1.435.404-1.787.188-.31.58-.674.756-.68.592-.029.926.217 2.168 1.612 1.166 1.307 1.594 1.687 2.238 1.998.293.135.645.275.791.31.352.083 5.098-.011 5.403-.1.304-.093.633-.415.638-.626.024-.58-.064-.844-.468-1.459-.54-.809-.996-1.324-2.56-2.871-1.665-1.647-1.776-1.799-1.782-2.35 0-.463.217-.814 1.676-2.748 2.056-2.724 2.877-4.043 3.105-4.969.135-.544.059-.808-.287-.996l-.246-.129-2.96.018c-2.09.018-3 .041-3.105.088-.199.094-.404.44-.668 1.096-.703 1.752-2.15 4.277-3.105 5.414-.38.45-.973.914-1.166.914-.275 0-.504-.176-.674-.528l-.158-.322.018-3.04c.017-3.276.005-3.37-.293-3.804-.3-.421-1.026-.568-2.977-.597a46.806 46.806 0 00-1.729.006z" fill="#666981"/></svg>