<svg width="30" height="30" viewBox="0 0 30 30" fill="none" xmlns="http://www.w3.org/2000/svg">
<path d="M27.9493 2.66003C25.9571 3.39245 1.377 12.8319 1.01372 13.0077C-0.187455 13.576 -0.32808 14.326 0.673873 14.8358C0.773482 14.8885 2.43168 15.4159 4.37114 16.0194L7.89262 17.1151L15.8848 12.1112C20.2852 9.36316 23.9707 7.078 24.0762 7.04284C24.3516 6.94909 24.586 6.95495 24.6914 7.06628C24.7676 7.14245 24.7735 7.17761 24.709 7.28894C24.6739 7.36511 21.75 10.0194 18.2227 13.1835C14.6954 16.3534 11.795 18.9667 11.7832 18.996C11.7715 19.0253 11.6543 20.6073 11.5196 22.5116L11.2735 25.9686L11.543 25.9335C11.6895 25.9159 11.918 25.8397 12.0528 25.7635C12.1934 25.6932 13.1075 24.8612 14.0977 23.9178C15.0821 22.9745 15.9258 22.1835 15.9668 22.1717C16.0079 22.1542 17.5782 23.2675 19.459 24.6444C21.334 26.0214 23.0157 27.2108 23.1973 27.2928C23.6719 27.5155 24.1993 27.5331 24.545 27.3514C24.8555 27.1874 25.1543 26.7772 25.2832 26.3495C25.3301 26.1854 26.4082 21.2225 27.668 15.3221C29.7715 5.50183 29.9649 4.55261 29.9649 4.04284C29.9649 3.56237 29.9473 3.44519 29.8184 3.19324C29.7305 3.01159 29.5723 2.82995 29.42 2.72449C29.0743 2.48425 28.5 2.45495 27.9493 2.66003Z" fill="#666981"/>
</svg>
